# xmcd
#
# Track frame offsets: 
#        182
#        10580
#        38020
#        52177
#        64907
#        89910
#        103142
#        116637
#        129255
#        145347
#        161282
#        187485
#        201557
#
# Disc length: 2839 seconds
#
# Revision: 3
# Processed by: cddbd v1.5.2PL0 Copyright (c) Steve Scherf et al.
# Submitted via: ExactAudioCopy v0.95b4
#
DISCID=c50b150d
DTITLE=The Birthday Party - Junkyard [UK 1988]
DYEAR=1982
DGENRE=Rock
TTITLE0=Blast Off
TTITLE1=She's Hit
TTITLE2=Dead Joe
TTITLE3=The Dim Locator
TTITLE4=Hamlet (Pow, Pow, Pow)
TTITLE5=Several Sins
TTITLE6=Big-Jesus-Trash-Can
TTITLE7=Kiss Me Black
TTITLE8=6" Gold Blade
TTITLE9=Kewpie Doll
TTITLE10=Junkyard
TTITLE11=Dead Joe (2nd version)
TTITLE12=Release The Bats
EXTD=
EXTT0=
EXTT1=
EXTT2=
EXTT3=
EXTT4=
EXTT5=
EXTT6=
EXTT7=
EXTT8=
EXTT9=
EXTT10=
EXTT11=
EXTT12=
PLAYORDER=
